<?xml version="1.0" standalone="no"?>
<svg xmlns="http://www.w3.org/2000/svg" version="1.1" width="200" height="200">
	<!-- Created with https://api.qrserver.com (QR Code API, see goQR.me/api for information) -->
	<title>QR Code</title>
	<desc>https://www.alea.net/cv/</desc>
	<rect style="fill:rgb(255, 255, 255);fill-opacity:1" x="0" y="0" width="200" height="200" />
	<g id="elements">
		<path style="fill:rgb(0, 0, 0)" d="M 0,0 l 8,0 0,8 -8,0 z M 8,0 l 8,0 0,8 -8,0 z M 16,0 l 8,0 0,8 -8,0 z M 24,0 l 8,0 0,8 -8,0 z M 32,0 l 8,0 0,8 -8,0 z M 40,0 l 8,0 0,8 -8,0 z M 48,0 l 8,0 0,8 -8,0 z M 72,0 l 8,0 0,8 -8,0 z M 104,0 l 8,0 0,8 -8,0 z M 128,0 l 8,0 0,8 -8,0 z M 144,0 l 8,0 0,8 -8,0 z M 152,0 l 8,0 0,8 -8,0 z M 160,0 l 8,0 0,8 -8,0 z M 168,0 l 8,0 0,8 -8,0 z M 176,0 l 8,0 0,8 -8,0 z M 184,0 l 8,0 0,8 -8,0 z M 192,0 l 8,0 0,8 -8,0 z M 0,8 l 8,0 0,8 -8,0 z M 48,8 l 8,0 0,8 -8,0 z M 64,8 l 8,0 0,8 -8,0 z M 72,8 l 8,0 0,8 -8,0 z M 88,8 l 8,0 0,8 -8,0 z M 96,8 l 8,0 0,8 -8,0 z M 104,8 l 8,0 0,8 -8,0 z M 112,8 l 8,0 0,8 -8,0 z M 120,8 l 8,0 0,8 -8,0 z M 144,8 l 8,0 0,8 -8,0 z M 192,8 l 8,0 0,8 -8,0 z M 0,16 l 8,0 0,8 -8,0 z M 16,16 l 8,0 0,8 -8,0 z M 24,16 l 8,0 0,8 -8,0 z M 32,16 l 8,0 0,8 -8,0 z M 48,16 l 8,0 0,8 -8,0 z M 72,16 l 8,0 0,8 -8,0 z M 80,16 l 8,0 0,8 -8,0 z M 88,16 l 8,0 0,8 -8,0 z M 128,16 l 8,0 0,8 -8,0 z M 144,16 l 8,0 0,8 -8,0 z M 160,16 l 8,0 0,8 -8,0 z M 168,16 l 8,0 0,8 -8,0 z M 176,16 l 8,0 0,8 -8,0 z M 192,16 l 8,0 0,8 -8,0 z M 0,24 l 8,0 0,8 -8,0 z M 16,24 l 8,0 0,8 -8,0 z M 24,24 l 8,0 0,8 -8,0 z M 32,24 l 8,0 0,8 -8,0 z M 48,24 l 8,0 0,8 -8,0 z M 64,24 l 8,0 0,8 -8,0 z M 72,24 l 8,0 0,8 -8,0 z M 88,24 l 8,0 0,8 -8,0 z M 104,24 l 8,0 0,8 -8,0 z M 112,24 l 8,0 0,8 -8,0 z M 144,24 l 8,0 0,8 -8,0 z M 160,24 l 8,0 0,8 -8,0 z M 168,24 l 8,0 0,8 -8,0 z M 176,24 l 8,0 0,8 -8,0 z M 192,24 l 8,0 0,8 -8,0 z M 0,32 l 8,0 0,8 -8,0 z M 16,32 l 8,0 0,8 -8,0 z M 24,32 l 8,0 0,8 -8,0 z M 32,32 l 8,0 0,8 -8,0 z M 48,32 l 8,0 0,8 -8,0 z M 80,32 l 8,0 0,8 -8,0 z M 96,32 l 8,0 0,8 -8,0 z M 144,32 l 8,0 0,8 -8,0 z M 160,32 l 8,0 0,8 -8,0 z M 168,32 l 8,0 0,8 -8,0 z M 176,32 l 8,0 0,8 -8,0 z M 192,32 l 8,0 0,8 -8,0 z M 0,40 l 8,0 0,8 -8,0 z M 48,40 l 8,0 0,8 -8,0 z M 64,40 l 8,0 0,8 -8,0 z M 80,40 l 8,0 0,8 -8,0 z M 112,40 l 8,0 0,8 -8,0 z M 120,40 l 8,0 0,8 -8,0 z M 128,40 l 8,0 0,8 -8,0 z M 144,40 l 8,0 0,8 -8,0 z M 192,40 l 8,0 0,8 -8,0 z M 0,48 l 8,0 0,8 -8,0 z M 8,48 l 8,0 0,8 -8,0 z M 16,48 l 8,0 0,8 -8,0 z M 24,48 l 8,0 0,8 -8,0 z M 32,48 l 8,0 0,8 -8,0 z M 40,48 l 8,0 0,8 -8,0 z M 48,48 l 8,0 0,8 -8,0 z M 64,48 l 8,0 0,8 -8,0 z M 80,48 l 8,0 0,8 -8,0 z M 96,48 l 8,0 0,8 -8,0 z M 112,48 l 8,0 0,8 -8,0 z M 128,48 l 8,0 0,8 -8,0 z M 144,48 l 8,0 0,8 -8,0 z M 152,48 l 8,0 0,8 -8,0 z M 160,48 l 8,0 0,8 -8,0 z M 168,48 l 8,0 0,8 -8,0 z M 176,48 l 8,0 0,8 -8,0 z M 184,48 l 8,0 0,8 -8,0 z M 192,48 l 8,0 0,8 -8,0 z M 96,56 l 8,0 0,8 -8,0 z M 112,56 l 8,0 0,8 -8,0 z M 120,56 l 8,0 0,8 -8,0 z M 0,64 l 8,0 0,8 -8,0 z M 8,64 l 8,0 0,8 -8,0 z M 16,64 l 8,0 0,8 -8,0 z M 24,64 l 8,0 0,8 -8,0 z M 32,64 l 8,0 0,8 -8,0 z M 48,64 l 8,0 0,8 -8,0 z M 56,64 l 8,0 0,8 -8,0 z M 64,64 l 8,0 0,8 -8,0 z M 72,64 l 8,0 0,8 -8,0 z M 80,64 l 8,0 0,8 -8,0 z M 96,64 l 8,0 0,8 -8,0 z M 104,64 l 8,0 0,8 -8,0 z M 112,64 l 8,0 0,8 -8,0 z M 120,64 l 8,0 0,8 -8,0 z M 136,64 l 8,0 0,8 -8,0 z M 152,64 l 8,0 0,8 -8,0 z M 168,64 l 8,0 0,8 -8,0 z M 184,64 l 8,0 0,8 -8,0 z M 0,72 l 8,0 0,8 -8,0 z M 56,72 l 8,0 0,8 -8,0 z M 64,72 l 8,0 0,8 -8,0 z M 72,72 l 8,0 0,8 -8,0 z M 112,72 l 8,0 0,8 -8,0 z M 128,72 l 8,0 0,8 -8,0 z M 136,72 l 8,0 0,8 -8,0 z M 152,72 l 8,0 0,8 -8,0 z M 184,72 l 8,0 0,8 -8,0 z M 16,80 l 8,0 0,8 -8,0 z M 24,80 l 8,0 0,8 -8,0 z M 32,80 l 8,0 0,8 -8,0 z M 48,80 l 8,0 0,8 -8,0 z M 72,80 l 8,0 0,8 -8,0 z M 88,80 l 8,0 0,8 -8,0 z M 96,80 l 8,0 0,8 -8,0 z M 112,80 l 8,0 0,8 -8,0 z M 120,80 l 8,0 0,8 -8,0 z M 128,80 l 8,0 0,8 -8,0 z M 136,80 l 8,0 0,8 -8,0 z M 144,80 l 8,0 0,8 -8,0 z M 152,80 l 8,0 0,8 -8,0 z M 160,80 l 8,0 0,8 -8,0 z M 168,80 l 8,0 0,8 -8,0 z M 184,80 l 8,0 0,8 -8,0 z M 192,80 l 8,0 0,8 -8,0 z M 0,88 l 8,0 0,8 -8,0 z M 8,88 l 8,0 0,8 -8,0 z M 16,88 l 8,0 0,8 -8,0 z M 24,88 l 8,0 0,8 -8,0 z M 32,88 l 8,0 0,8 -8,0 z M 64,88 l 8,0 0,8 -8,0 z M 72,88 l 8,0 0,8 -8,0 z M 80,88 l 8,0 0,8 -8,0 z M 88,88 l 8,0 0,8 -8,0 z M 120,88 l 8,0 0,8 -8,0 z M 128,88 l 8,0 0,8 -8,0 z M 136,88 l 8,0 0,8 -8,0 z M 152,88 l 8,0 0,8 -8,0 z M 192,88 l 8,0 0,8 -8,0 z M 0,96 l 8,0 0,8 -8,0 z M 8,96 l 8,0 0,8 -8,0 z M 24,96 l 8,0 0,8 -8,0 z M 32,96 l 8,0 0,8 -8,0 z M 40,96 l 8,0 0,8 -8,0 z M 48,96 l 8,0 0,8 -8,0 z M 56,96 l 8,0 0,8 -8,0 z M 72,96 l 8,0 0,8 -8,0 z M 88,96 l 8,0 0,8 -8,0 z M 104,96 l 8,0 0,8 -8,0 z M 120,96 l 8,0 0,8 -8,0 z M 136,96 l 8,0 0,8 -8,0 z M 144,96 l 8,0 0,8 -8,0 z M 152,96 l 8,0 0,8 -8,0 z M 160,96 l 8,0 0,8 -8,0 z M 176,96 l 8,0 0,8 -8,0 z M 184,96 l 8,0 0,8 -8,0 z M 192,96 l 8,0 0,8 -8,0 z M 0,104 l 8,0 0,8 -8,0 z M 16,104 l 8,0 0,8 -8,0 z M 40,104 l 8,0 0,8 -8,0 z M 64,104 l 8,0 0,8 -8,0 z M 72,104 l 8,0 0,8 -8,0 z M 80,104 l 8,0 0,8 -8,0 z M 96,104 l 8,0 0,8 -8,0 z M 104,104 l 8,0 0,8 -8,0 z M 128,104 l 8,0 0,8 -8,0 z M 136,104 l 8,0 0,8 -8,0 z M 152,104 l 8,0 0,8 -8,0 z M 168,104 l 8,0 0,8 -8,0 z M 184,104 l 8,0 0,8 -8,0 z M 0,112 l 8,0 0,8 -8,0 z M 16,112 l 8,0 0,8 -8,0 z M 32,112 l 8,0 0,8 -8,0 z M 48,112 l 8,0 0,8 -8,0 z M 56,112 l 8,0 0,8 -8,0 z M 64,112 l 8,0 0,8 -8,0 z M 72,112 l 8,0 0,8 -8,0 z M 104,112 l 8,0 0,8 -8,0 z M 112,112 l 8,0 0,8 -8,0 z M 120,112 l 8,0 0,8 -8,0 z M 136,112 l 8,0 0,8 -8,0 z M 144,112 l 8,0 0,8 -8,0 z M 152,112 l 8,0 0,8 -8,0 z M 160,112 l 8,0 0,8 -8,0 z M 168,112 l 8,0 0,8 -8,0 z M 184,112 l 8,0 0,8 -8,0 z M 192,112 l 8,0 0,8 -8,0 z M 0,120 l 8,0 0,8 -8,0 z M 24,120 l 8,0 0,8 -8,0 z M 56,120 l 8,0 0,8 -8,0 z M 80,120 l 8,0 0,8 -8,0 z M 96,120 l 8,0 0,8 -8,0 z M 112,120 l 8,0 0,8 -8,0 z M 120,120 l 8,0 0,8 -8,0 z M 128,120 l 8,0 0,8 -8,0 z M 136,120 l 8,0 0,8 -8,0 z M 152,120 l 8,0 0,8 -8,0 z M 160,120 l 8,0 0,8 -8,0 z M 192,120 l 8,0 0,8 -8,0 z M 0,128 l 8,0 0,8 -8,0 z M 48,128 l 8,0 0,8 -8,0 z M 64,128 l 8,0 0,8 -8,0 z M 80,128 l 8,0 0,8 -8,0 z M 96,128 l 8,0 0,8 -8,0 z M 104,128 l 8,0 0,8 -8,0 z M 112,128 l 8,0 0,8 -8,0 z M 128,128 l 8,0 0,8 -8,0 z M 136,128 l 8,0 0,8 -8,0 z M 144,128 l 8,0 0,8 -8,0 z M 152,128 l 8,0 0,8 -8,0 z M 160,128 l 8,0 0,8 -8,0 z M 176,128 l 8,0 0,8 -8,0 z M 64,136 l 8,0 0,8 -8,0 z M 80,136 l 8,0 0,8 -8,0 z M 120,136 l 8,0 0,8 -8,0 z M 128,136 l 8,0 0,8 -8,0 z M 160,136 l 8,0 0,8 -8,0 z M 168,136 l 8,0 0,8 -8,0 z M 0,144 l 8,0 0,8 -8,0 z M 8,144 l 8,0 0,8 -8,0 z M 16,144 l 8,0 0,8 -8,0 z M 24,144 l 8,0 0,8 -8,0 z M 32,144 l 8,0 0,8 -8,0 z M 40,144 l 8,0 0,8 -8,0 z M 48,144 l 8,0 0,8 -8,0 z M 64,144 l 8,0 0,8 -8,0 z M 72,144 l 8,0 0,8 -8,0 z M 88,144 l 8,0 0,8 -8,0 z M 96,144 l 8,0 0,8 -8,0 z M 104,144 l 8,0 0,8 -8,0 z M 128,144 l 8,0 0,8 -8,0 z M 144,144 l 8,0 0,8 -8,0 z M 160,144 l 8,0 0,8 -8,0 z M 176,144 l 8,0 0,8 -8,0 z M 184,144 l 8,0 0,8 -8,0 z M 192,144 l 8,0 0,8 -8,0 z M 0,152 l 8,0 0,8 -8,0 z M 48,152 l 8,0 0,8 -8,0 z M 72,152 l 8,0 0,8 -8,0 z M 88,152 l 8,0 0,8 -8,0 z M 112,152 l 8,0 0,8 -8,0 z M 128,152 l 8,0 0,8 -8,0 z M 160,152 l 8,0 0,8 -8,0 z M 168,152 l 8,0 0,8 -8,0 z M 192,152 l 8,0 0,8 -8,0 z M 0,160 l 8,0 0,8 -8,0 z M 16,160 l 8,0 0,8 -8,0 z M 24,160 l 8,0 0,8 -8,0 z M 32,160 l 8,0 0,8 -8,0 z M 48,160 l 8,0 0,8 -8,0 z M 64,160 l 8,0 0,8 -8,0 z M 72,160 l 8,0 0,8 -8,0 z M 80,160 l 8,0 0,8 -8,0 z M 88,160 l 8,0 0,8 -8,0 z M 96,160 l 8,0 0,8 -8,0 z M 104,160 l 8,0 0,8 -8,0 z M 112,160 l 8,0 0,8 -8,0 z M 120,160 l 8,0 0,8 -8,0 z M 128,160 l 8,0 0,8 -8,0 z M 136,160 l 8,0 0,8 -8,0 z M 144,160 l 8,0 0,8 -8,0 z M 152,160 l 8,0 0,8 -8,0 z M 160,160 l 8,0 0,8 -8,0 z M 176,160 l 8,0 0,8 -8,0 z M 0,168 l 8,0 0,8 -8,0 z M 16,168 l 8,0 0,8 -8,0 z M 24,168 l 8,0 0,8 -8,0 z M 32,168 l 8,0 0,8 -8,0 z M 48,168 l 8,0 0,8 -8,0 z M 64,168 l 8,0 0,8 -8,0 z M 80,168 l 8,0 0,8 -8,0 z M 96,168 l 8,0 0,8 -8,0 z M 112,168 l 8,0 0,8 -8,0 z M 144,168 l 8,0 0,8 -8,0 z M 160,168 l 8,0 0,8 -8,0 z M 168,168 l 8,0 0,8 -8,0 z M 176,168 l 8,0 0,8 -8,0 z M 184,168 l 8,0 0,8 -8,0 z M 192,168 l 8,0 0,8 -8,0 z M 0,176 l 8,0 0,8 -8,0 z M 16,176 l 8,0 0,8 -8,0 z M 24,176 l 8,0 0,8 -8,0 z M 32,176 l 8,0 0,8 -8,0 z M 48,176 l 8,0 0,8 -8,0 z M 64,176 l 8,0 0,8 -8,0 z M 80,176 l 8,0 0,8 -8,0 z M 104,176 l 8,0 0,8 -8,0 z M 112,176 l 8,0 0,8 -8,0 z M 120,176 l 8,0 0,8 -8,0 z M 168,176 l 8,0 0,8 -8,0 z M 176,176 l 8,0 0,8 -8,0 z M 192,176 l 8,0 0,8 -8,0 z M 0,184 l 8,0 0,8 -8,0 z M 48,184 l 8,0 0,8 -8,0 z M 64,184 l 8,0 0,8 -8,0 z M 80,184 l 8,0 0,8 -8,0 z M 88,184 l 8,0 0,8 -8,0 z M 120,184 l 8,0 0,8 -8,0 z M 128,184 l 8,0 0,8 -8,0 z M 136,184 l 8,0 0,8 -8,0 z M 152,184 l 8,0 0,8 -8,0 z M 160,184 l 8,0 0,8 -8,0 z M 168,184 l 8,0 0,8 -8,0 z M 192,184 l 8,0 0,8 -8,0 z M 0,192 l 8,0 0,8 -8,0 z M 8,192 l 8,0 0,8 -8,0 z M 16,192 l 8,0 0,8 -8,0 z M 24,192 l 8,0 0,8 -8,0 z M 32,192 l 8,0 0,8 -8,0 z M 40,192 l 8,0 0,8 -8,0 z M 48,192 l 8,0 0,8 -8,0 z M 64,192 l 8,0 0,8 -8,0 z M 72,192 l 8,0 0,8 -8,0 z M 80,192 l 8,0 0,8 -8,0 z M 88,192 l 8,0 0,8 -8,0 z M 96,192 l 8,0 0,8 -8,0 z M 104,192 l 8,0 0,8 -8,0 z M 152,192 l 8,0 0,8 -8,0 z M 160,192 l 8,0 0,8 -8,0 z M 168,192 l 8,0 0,8 -8,0 z M 176,192 l 8,0 0,8 -8,0 z M 184,192 l 8,0 0,8 -8,0 z M 192,192 l 8,0 0,8 -8,0 z " />
	</g>
</svg>
